# xmcd CD database file
#
# Track frame offsets:
#	150
#	25275
#	52650
#	74887
#	108637
#	133075
#	136062
#	156375
#	192075
#	221025
#	242175
#	279975
#	311400
#
# Disc length: 4456 seconds
#
# Revision: 0
# Processed by: cddbd v1.5.2PL0 Copyright (c) Steve Scherf et al.
# Submitted via: CDex 1.51
#
DISCID=c311660d
DTITLE=United Colors Of Jazz - United Colors Of Jazz
DYEAR=1992
DGENRE=Jazz
TTITLE0=Psychedelic Sally
TTITLE1=Naked Naval
TTITLE2=Brazilian Buzz
TTITLE3=The Bare Necessities
TTITLE4=Get Up!
TTITLE5=Eddies Twig
TTITLE6=Eddies Trees
TTITLE7=Malatya
TTITLE8=Ayse
TTITLE9=Mana Mana
TTITLE10=Groovy Girl
TTITLE11=Time To Do Your Thing
TTITLE12=Donna Lee
EXTD=YEAR: 1992
EXTT0=
EXTT1=
EXTT2=
EXTT3=
EXTT4=
EXTT5=
EXTT6=
EXTT7=
EXTT8=
EXTT9=
EXTT10=
EXTT11=
EXTT12=
PLAYORDER=
